# xmcd
#
# Track frame offsets:
#	183
#	15183
#	34250
#	50945
#	68315
#	88960
#	103933
#	129895
#	152430
#	188323
#
# Disc length: 2954 seconds
#
# Revision: 0
# Processed by: cddbd v1.5.2PL0 Copyright (c) Steve Scherf et al.
# Submitted via: EasyCDDAExtractor 10.5.1.1
#
DISCID=710b880a
DTITLE=Norman Connors - This is Your Life
DYEAR=1993
DGENRE=Soul
TTITLE0=Stella
TTITLE1=This Is Your Life
TTITLE2=Wouldn't You Like To See
TTITLE3=Listen
TTITLE4=Say You Love Me
TTITLE5=Captain Connors
TTITLE6=You Make Me Feel Brand New
TTITLE7=Butterfly
TTITLE8=The Creator
TTITLE9=Captain Connors (12" Version)
EXTD=
EXTT0=
EXTT1=
EXTT2=
EXTT3=
EXTT4=
EXTT5=
EXTT6=
EXTT7=
EXTT8=
EXTT9=
PLAYORDER=
